<?xml version="1.0" standalone="no"?>
<!DOCTYPE svg PUBLIC "-//W3C//DTD SVG 20010904//EN"
 "http://www.w3.org/TR/2001/REC-SVG-20010904/DTD/svg10.dtd">
<svg version="1.0" xmlns="http://www.w3.org/2000/svg"
 width="512.000000pt" height="512.000000pt" viewBox="0 0 512.000000 512.000000"
 preserveAspectRatio="xMidYMid meet">
<metadata>
Created by potrace 1.16, written by Peter Selinger 2001-2019
</metadata>
<g transform="translate(0.000000,512.000000) scale(0.100000,-0.100000)"
fill="#000000" stroke="none">
<path d="M2470 3669 c-65 -29 -1500 -1464 -1529 -1529 -78 -173 93 -356 267
-285 26 11 236 214 695 673 l657 657 658 -657 c458 -459 668 -662 694 -673
135 -55 289 50 288 197 -1 93 2 90 -773 865 -778 778 -772 773 -867 773 -25 0
-65 -10 -90 -21z"/>
</g>
</svg>
