<?xml version="1.0" encoding="UTF-8" standalone="no"?>
<svg
   width="43.999401"
   height="22.000099"
   viewBox="0 0 43.999401 22.000099"
   fill="none"
   version="1.1"
   id="svg18"
   sodipodi:docname="cc0a54b4e61b360f5b0a914c9bfa1a57.svg"
   xmlns:inkscape="http://www.inkscape.org/namespaces/inkscape"
   xmlns:sodipodi="http://sodipodi.sourceforge.net/DTD/sodipodi-0.dtd"
   xmlns="http://www.w3.org/2000/svg"
   xmlns:svg="http://www.w3.org/2000/svg">
  <defs
     id="defs22" />
  <sodipodi:namedview
     id="namedview20"
     pagecolor="#ffffff"
     bordercolor="#666666"
     borderopacity="1.0"
     inkscape:pageshadow="2"
     inkscape:pageopacity="0.0"
     inkscape:pagecheckerboard="0" />
  <path
     d="M 43.2137,22 H 14.9286 C 14.8769,22 14.8259,21.9948 14.7754,21.9845 14.7243,21.9747 14.6755,21.9598 14.6279,21.9403 14.5802,21.9202 14.5349,21.8961 14.4918,21.8674 14.4488,21.8387 14.4092,21.806 14.373,21.7699 14.3363,21.7331 14.3036,21.6935 14.2749,21.6505 14.2462,21.608 14.2221,21.5627 14.2026,21.515 14.1831,21.4674 14.1681,21.418 14.1578,21.3675 14.1475,21.317 14.1429,21.2659 14.1429,21.2143 V 0.785714 c 0,-0.051654 0.0046,-0.102734 0.0149,-0.15324 C 14.1681,0.581968 14.1831,0.53261 14.2026,0.484973 14.2221,0.437337 14.2462,0.391996 14.2749,0.349525 14.3036,0.30648 14.3363,0.266879 14.373,0.230147 14.4092,0.193989 14.4488,0.161275 14.4918,0.132579 14.5349,0.103882 14.5802,0.0797767 14.6279,0.059689 14.6755,0.0401754 14.7243,0.0252532 14.7754,0.0154962 14.8259,0.00516547 14.8769,0 14.9286,0 h 28.2851 c 0.0517,0 0.1028,0.00516547 0.1533,0.0154962 0.0505,0.009757 0.0998,0.0246792 0.1475,0.0441928 0.0476,0.0200877 0.093,0.044193 0.136,0.07289 0.0425,0.028696 0.0826,0.06141 0.1188,0.097568 0.0367,0.036732 0.0689,0.076333 0.0976,0.119378 0.0287,0.042471 0.0528,0.087812 0.0729,0.135448 0.0195,0.047637 0.0344,0.096995 0.0447,0.147501 0.0098,0.050506 0.0149,0.101586 0.0149,0.15324 V 21.2143 c 0,0.0516 -0.0051,0.1027 -0.0149,0.1532 -0.0103,0.0505 -0.0252,0.0999 -0.0447,0.1475 -0.0201,0.0477 -0.0442,0.093 -0.0729,0.1355 -0.0287,0.043 -0.0609,0.0826 -0.0976,0.1194 -0.0362,0.0361 -0.0763,0.0688 -0.1188,0.0975 -0.043,0.0287 -0.0884,0.0528 -0.136,0.0729 -0.0477,0.0195 -0.097,0.0344 -0.1475,0.0442 C 43.3165,21.9948 43.2654,22 43.2137,22 Z M 15.7143,20.4286 H 42.428 V 1.57143 H 15.7143 Z"
     fill="#ff0105"
     id="path2" />
  <path
     d="M 11.7857,18.8571 H 7.07142 c -0.05165,0 -0.10273,-0.0052 -0.15324,-0.0149 C 6.86767,18.8318 6.81832,18.8169 6.77068,18.7974 6.72304,18.7773 6.6777,18.7532 6.63466,18.7245 6.59219,18.6958 6.55201,18.6631 6.51585,18.6269 6.47912,18.5902 6.44698,18.5506 6.41828,18.5075 6.38959,18.4651 6.36491,18.4197 6.34539,18.3721 6.32588,18.3245 6.31096,18.2751 6.30063,18.2246 6.29087,18.1741 6.28571,18.123 6.28571,18.0714 c 0,-0.0517 0.00516,-0.1028 0.01492,-0.1533 0.01033,-0.0505 0.02525,-0.0998 0.04476,-0.1475 0.01952,-0.0476 0.0442,-0.093 0.07289,-0.136 0.0287,-0.0425 0.06084,-0.0827 0.09757,-0.1188 0.03616,-0.0367 0.07634,-0.0689 0.11881,-0.0976 0.04304,-0.0287 0.08838,-0.0534 0.13602,-0.0729 0.04764,-0.0195 0.09699,-0.0344 0.1475,-0.0447 0.05051,-0.0098 0.10159,-0.015 0.15324,-0.015 h 4.71428 c 0.0517,0 0.1027,0.0052 0.1532,0.015 0.0506,0.0103 0.0999,0.0252 0.1475,0.0447 0.0477,0.0195 0.093,0.0442 0.1355,0.0729 0.043,0.0287 0.0826,0.0609 0.1194,0.0976 0.0361,0.0361 0.0688,0.0763 0.0975,0.1188 0.0287,0.043 0.0528,0.0884 0.0729,0.136 0.0195,0.0477 0.0345,0.097 0.0442,0.1475 0.0104,0.0505 0.0155,0.1016 0.0155,0.1533 0,0.0516 -0.0051,0.1027 -0.0155,0.1532 -0.0097,0.0505 -0.0247,0.0999 -0.0442,0.1475 -0.0201,0.0476 -0.0442,0.093 -0.0729,0.1354 -0.0287,0.0431 -0.0614,0.0827 -0.0975,0.1194 -0.0368,0.0362 -0.0764,0.0689 -0.1194,0.0976 -0.0425,0.0287 -0.0878,0.0528 -0.1355,0.0729 -0.0476,0.0195 -0.0969,0.0344 -0.1475,0.0448 -0.0505,0.0097 -0.1015,0.0149 -0.1532,0.0149 z"
     fill="#ff0105"
     id="path4" />
  <path
     d="M 11.7857,14.143 H 3.9286 C 3.87694,14.143 3.82586,14.1378 3.77536,14.128 3.72485,14.1177 3.67549,14.1028 3.62786,14.0833 3.58022,14.0632 3.53488,14.0391 3.49183,14.0104 3.44936,13.9817 3.40919,13.9495 3.37303,13.9128 3.3363,13.8761 3.30416,13.8365 3.27546,13.794 3.24677,13.751 3.22266,13.7056 3.20257,13.658 3.18306,13.6104 3.16814,13.561 3.15781,13.5105 3.14805,13.46 3.14288,13.4089 3.14288,13.3572 c 0,-0.0516 0.00517,-0.1027 0.01493,-0.1532 0.01033,-0.0505 0.02525,-0.0999 0.04476,-0.1475 0.02009,-0.0476 0.0442,-0.093 0.07289,-0.136 0.0287,-0.0425 0.06084,-0.0827 0.09757,-0.1188 0.03616,-0.0368 0.07633,-0.0689 0.1188,-0.0976 0.04305,-0.0287 0.08839,-0.0528 0.13603,-0.0729 0.04763,-0.0195 0.09699,-0.0344 0.1475,-0.0447 0.0505,-0.0098 0.10158,-0.015 0.15324,-0.015 h 7.8571 c 0.0517,0 0.1028,0.0052 0.1533,0.015 0.0505,0.0103 0.0998,0.0252 0.1475,0.0447 0.0476,0.0201 0.093,0.0442 0.1354,0.0729 0.0431,0.0287 0.0827,0.0608 0.1194,0.0976 0.0362,0.0361 0.0689,0.0763 0.0976,0.1188 0.0287,0.043 0.0528,0.0884 0.0729,0.136 0.0195,0.0476 0.0344,0.097 0.0442,0.1475 0.0103,0.0505 0.0155,0.1016 0.0155,0.1532 0,0.0517 -0.0052,0.1028 -0.0155,0.1533 -0.0098,0.0505 -0.0247,0.0999 -0.0442,0.1475 -0.0201,0.0476 -0.0442,0.093 -0.0729,0.136 -0.0287,0.0425 -0.0614,0.0821 -0.0976,0.1188 -0.0367,0.0367 -0.0763,0.0689 -0.1194,0.0976 -0.0424,0.0287 -0.0878,0.0528 -0.1354,0.0729 -0.0477,0.0195 -0.097,0.0344 -0.1475,0.0447 -0.0505,0.0098 -0.1016,0.015 -0.1533,0.015 z"
     fill="#ff0105"
     id="path6" />
  <path
     d="M 11.7857,4.71425 H 5.50001 C 5.44835,4.71425 5.39727,4.70909 5.34677,4.69933 5.29626,4.689 5.2469,4.67408 5.19927,4.65456 5.15163,4.63505 5.10629,4.61037 5.06325,4.58167 5.02077,4.55298 4.9806,4.52084 4.94444,4.4841 4.90771,4.44795 4.87557,4.40777 4.84687,4.3653 4.81818,4.32225 4.79407,4.27691 4.77398,4.22928 4.75447,4.18164 4.73955,4.13228 4.72922,4.08178 4.71946,4.03127 4.71429,3.98019 4.71429,3.92854 4.71429,3.87688 4.71946,3.8258 4.72922,3.7753 4.73955,3.72479 4.75447,3.67543 4.77398,3.6278 4.79407,3.58016 4.81818,3.53482 4.84687,3.49235 4.87557,3.4493 4.90771,3.4097 4.94444,3.37297 4.9806,3.33681 5.02077,3.3041 5.06325,3.2754 5.10629,3.2467 5.15163,3.2226 5.19927,3.20251 5.2469,3.183 5.29626,3.16808 5.34677,3.15774 5.39727,3.14799 5.44835,3.14282 5.50001,3.14282 h 6.28569 c 0.0517,0 0.1028,0.00517 0.1533,0.01492 0.0505,0.01034 0.0998,0.02526 0.1475,0.04477 0.0476,0.02009 0.0929,0.04419 0.1354,0.07289 0.0431,0.0287 0.0827,0.06141 0.1194,0.09757 0.0361,0.03673 0.0689,0.07633 0.0976,0.11938 0.0287,0.04247 0.0528,0.08781 0.0728,0.13545 0.0196,0.04763 0.0345,0.09699 0.0442,0.1475 0.0104,0.0505 0.0155,0.10158 0.0155,0.15324 0,0.05165 -0.0051,0.10273 -0.0155,0.15324 -0.0097,0.0505 -0.0246,0.09986 -0.0442,0.1475 -0.02,0.04763 -0.0441,0.09297 -0.0728,0.13602 -0.0287,0.04247 -0.0615,0.08265 -0.0976,0.1188 -0.0367,0.03674 -0.0763,0.06888 -0.1194,0.09757 -0.0425,0.0287 -0.0878,0.05338 -0.1354,0.07289 -0.0477,0.01952 -0.097,0.03444 -0.1475,0.04477 -0.0505,0.00976 -0.1016,0.01492 -0.1533,0.01492 z"
     fill="#ff0105"
     id="path8" />
  <path
     d="M 11.7857,9.42861 H 0.785714 C 0.73406,9.42861 0.68298,9.42344 0.632474,9.41368 0.581968,9.40335 0.53261,9.38843 0.484973,9.36892 0.437337,9.34883 0.391996,9.32472 0.348951,9.29603 0.30648,9.26733 0.266879,9.23519 0.230147,9.19846 0.193415,9.1623 0.161275,9.12213 0.132579,9.07966 0.103882,9.03661 0.0797767,8.99127 0.059689,8.94363 0.0401754,8.896 0.0252531,8.84664 0.0149223,8.79613 0.00516543,8.74563 0,8.69455 0,8.64289 0,8.59124 0.00516543,8.54016 0.0149223,8.48965 0.0252531,8.43915 0.0401754,8.38979 0.059689,8.34215 0.0797767,8.29451 0.103882,8.24917 0.132579,8.20613 0.161275,8.16366 0.193415,8.12406 0.230147,8.08732 0.266879,8.05059 0.30648,8.01845 0.348951,7.98976 0.391996,7.96106 0.437337,7.93695 0.484973,7.91687 0.53261,7.89735 0.581968,7.88243 0.632474,7.8721 0.68298,7.86234 0.73406,7.85718 0.785714,7.85718 H 11.7857 c 0.0517,0 0.1027,0.00516 0.1533,0.01492 0.0505,0.01033 0.0998,0.02525 0.1475,0.04477 0.0476,0.02008 0.0929,0.04419 0.1354,0.07289 0.043,0.02869 0.0827,0.06083 0.1194,0.09756 0.0361,0.03674 0.0689,0.07634 0.0976,0.11881 0.0286,0.04304 0.0528,0.08838 0.0728,0.13602 0.0196,0.04764 0.0345,0.097 0.0442,0.1475 0.0104,0.05051 0.0155,0.10159 0.0155,0.15324 0,0.05166 -0.0051,0.10274 -0.0155,0.15324 -0.0097,0.05051 -0.0246,0.09987 -0.0442,0.1475 -0.02,0.04764 -0.0442,0.09298 -0.0728,0.13603 -0.0287,0.04247 -0.0615,0.08264 -0.0976,0.1188 -0.0367,0.03673 -0.0764,0.06887 -0.1194,0.09757 -0.0425,0.02869 -0.0878,0.0528 -0.1354,0.07289 -0.0477,0.01951 -0.097,0.03443 -0.1475,0.04476 -0.0506,0.00976 -0.1016,0.01493 -0.1533,0.01493 z"
     fill="#ff0105"
     id="path10" />
  <path
     d="m 29.0708,14.1429 c -0.1584,0 -0.3036,-0.0442 -0.4356,-0.132 L 14.4924,4.58236 C 14.4493,4.55423 14.4092,4.52152 14.3718,4.48536 14.3351,4.4492 14.3018,4.40903 14.2726,4.36656 14.2433,4.32351 14.2186,4.27817 14.1985,4.23054 14.1784,4.18233 14.1629,4.13297 14.1526,4.08246 14.1423,4.03138 14.1371,3.9803 14.1365,3.92807 c 0,-0.05165 0.0046,-0.1033 0.015,-0.15381 0.0097,-0.05108 0.0246,-0.10044 0.0442,-0.14865 0.02,-0.04821 0.0441,-0.09355 0.0728,-0.13659 0.0287,-0.04305 0.0615,-0.08323 0.0982,-0.11996 0.0367,-0.03673 0.0769,-0.06944 0.1199,-0.09814 0.0431,-0.0287 0.089,-0.0528 0.1366,-0.07289 0.0482,-0.01951 0.0976,-0.03443 0.1487,-0.04419 0.0511,-0.01033 0.1021,-0.01492 0.1544,-0.01492 0.0516,5.7e-4 0.1033,0.00574 0.1538,0.01607 0.0511,0.01033 0.1004,0.02582 0.1481,0.04591 0.0476,0.02009 0.0929,0.04477 0.136,0.07404 L 29.0708,12.4131 42.7781,3.27551 C 42.8211,3.24739 42.8659,3.22328 42.9135,3.20434 42.9612,3.1854 43.01,3.17048 43.0605,3.1613 43.111,3.15154 43.1621,3.14695 43.2131,3.14753 c 0.0511,0 0.1022,0.00516 0.1521,0.01549 0.0505,0.01033 0.0993,0.02525 0.1464,0.04534 0.0476,0.02009 0.0924,0.04419 0.1349,0.07289 0.0424,0.0287 0.082,0.06084 0.1182,0.09757 0.0361,0.03616 0.0683,0.07576 0.097,0.11823 0.0281,0.04247 0.0522,0.08781 0.0717,0.13487 0.0201,0.04764 0.035,0.09643 0.0448,0.14693 0.0103,0.04993 0.0149,0.10101 0.0155,0.15209 0,0.05166 -0.0052,0.10216 -0.0149,0.15267 C 43.969,4.13412 43.9547,4.1829 43.9351,4.22996 43.9156,4.2776 43.8921,4.32294 43.8634,4.36541 43.8353,4.40846 43.8031,4.44806 43.767,4.48479 43.7314,4.52095 43.6918,4.55366 43.6493,4.58293 L 29.507,14.0109 c -0.132,0.0884 -0.2772,0.132 -0.4362,0.132 z"
     fill="#ff0105"
     id="path12" />
  <path
     d="m 14.9286,22.0001 c -0.0781,0 -0.1538,-0.0115 -0.2284,-0.0339 -0.0741,-0.0229 -0.1435,-0.0556 -0.2084,-0.0987 -0.0643,-0.043 -0.1211,-0.0947 -0.1704,-0.1549 -0.0494,-0.0597 -0.089,-0.1257 -0.1188,-0.1975 -0.0299,-0.0717 -0.0483,-0.1463 -0.0557,-0.2238 -0.0081,-0.0775 -0.004,-0.1538 0.0109,-0.2302 0.0155,-0.0763 0.0413,-0.1486 0.078,-0.2169 0.0362,-0.0689 0.0821,-0.1303 0.1372,-0.1854 L 24.744,10.2873 c 0.0367,-0.0373 0.0763,-0.0712 0.1188,-0.1005 0.043,-0.0298 0.0884,-0.0551 0.1366,-0.0752 0.0476,-0.0206 0.0976,-0.0367 0.1481,-0.047 0.051,-0.0109 0.1027,-0.0167 0.1549,-0.0172 0.0522,0 0.1039,0.0046 0.155,0.0143 0.0516,0.0098 0.101,0.0247 0.1492,0.0442 0.0488,0.0201 0.0941,0.0442 0.1377,0.0735 0.0437,0.0287 0.0838,0.0614 0.1206,0.0981 0.0367,0.0373 0.07,0.0775 0.0987,0.1205 0.0287,0.0437 0.0534,0.0896 0.0729,0.1378 0.0195,0.0482 0.0344,0.0981 0.0442,0.1492 0.0103,0.0511 0.0149,0.1027 0.0143,0.155 -6e-4,0.0522 -0.0063,0.1038 -0.0166,0.1549 -0.0109,0.0511 -0.0264,0.1005 -0.0471,0.1487 -0.0206,0.0476 -0.0459,0.093 -0.0752,0.136 -0.0298,0.043 -0.0631,0.0826 -0.101,0.1188 l -10.371,10.3715 c -0.074,0.0735 -0.1589,0.1303 -0.2548,0.1705 -0.0964,0.0396 -0.1968,0.0597 -0.3007,0.0597 z"
     fill="#ff0105"
     id="path14" />
  <path
     d="m 43.2137,22.0001 c -0.1039,0 -0.2043,-0.0201 -0.3007,-0.0597 -0.0964,-0.0402 -0.1814,-0.097 -0.2548,-0.1705 L 32.2872,11.3984 c -0.0379,-0.0362 -0.0712,-0.0758 -0.101,-0.1188 -0.0299,-0.043 -0.0545,-0.0884 -0.0752,-0.136 -0.0207,-0.0482 -0.0362,-0.0976 -0.0471,-0.1487 -0.0109,-0.0511 -0.016,-0.1027 -0.0166,-0.1549 -6e-4,-0.0523 0.004,-0.1039 0.0138,-0.155 0.0097,-0.0511 0.0246,-0.101 0.0447,-0.1492 0.0195,-0.0482 0.0436,-0.0941 0.0729,-0.1378 0.0287,-0.043 0.0614,-0.0832 0.0987,-0.1205 0.0368,-0.0367 0.0769,-0.0694 0.1206,-0.0987 0.043,-0.0287 0.0889,-0.0528 0.1371,-0.0729 0.0482,-0.0195 0.0982,-0.0344 0.1493,-0.0442 0.0516,-0.0097 0.1033,-0.0143 0.1555,-0.0143 0.0516,5e-4 0.1033,0.0063 0.1544,0.0172 0.0511,0.0103 0.101,0.0264 0.1486,0.047 0.0482,0.0201 0.0936,0.0454 0.136,0.0752 0.0431,0.0293 0.0827,0.0632 0.1189,0.1005 l 10.3715,10.3715 c 0.0551,0.0551 0.1004,0.1165 0.1372,0.1854 0.0367,0.0683 0.0625,0.1406 0.078,0.2169 0.0149,0.0764 0.0184,0.1527 0.0109,0.2302 -0.0074,0.0775 -0.0264,0.1521 -0.0556,0.2238 -0.0299,0.0718 -0.0695,0.1378 -0.1189,0.1975 -0.0493,0.0602 -0.1061,0.1119 -0.1704,0.1549 -0.0649,0.0431 -0.1343,0.0758 -0.2089,0.0987 -0.0741,0.0224 -0.1504,0.0339 -0.2279,0.0339 z"
     fill="#ff0105"
     id="path16" />
</svg>
