<svg width="18" height="25" viewBox="0 0 18 25" fill="none" xmlns="http://www.w3.org/2000/svg">
<mask id="mask0_0_314" style="mask-type:luminance" maskUnits="userSpaceOnUse" x="0" y="0" width="18" height="25">
<path d="M0 0H17.4258V25H0V0Z" fill="white"/>
</mask>
<g mask="url(#mask0_0_314)">
<path fill-rule="evenodd" clip-rule="evenodd" d="M8.71292 0.00976562C13.5251 0.00976562 17.4261 3.91546 17.4261 8.73345C17.4261 10.4096 16.9536 11.9751 16.1348 13.3045C15.153 14.933 14.1709 16.5617 13.1891 18.1904C11.993 20.1366 11.0252 21.7115 9.82963 23.658C8.77527 25.3739 8.7041 25.4161 7.64422 23.6914C6.45442 21.7548 5.45413 20.127 4.26432 18.1904C3.28445 16.5799 2.30513 14.9697 1.32526 13.3594C0.485799 12.0184 0 10.4328 0 8.73345C0 3.91546 3.90101 0.00976562 8.71292 0.00976562ZM8.71292 4.38361C10.8702 4.38361 12.6192 6.13452 12.6192 8.29427C12.6192 10.454 10.8705 12.2049 8.71292 12.2049C6.55566 12.2049 4.80695 10.454 4.80695 8.29427C4.80695 6.13452 6.55566 4.38361 8.71292 4.38361Z" fill="white"/>
</g>
</svg>
