<svg width="27" height="36" viewBox="0 0 27 36" fill="none" xmlns="http://www.w3.org/2000/svg">
<path d="M7.26343 1.45292C7.26343 1.45292 -0.0885602 1.9048 0.328542 8.55553C0.745194 15.2063 2.36758 21.0267 4.72369 24.1997C7.07937 27.3732 13.1302 35.6861 19.4897 34.5092C19.4897 34.5092 22.61 33.6813 24.9234 32.0222L16.8917 26.3188C16.8917 26.3188 14.6687 27.8768 13.1423 26.0167C11.6162 24.1565 6.69236 15.4031 6.69236 15.4031C6.69236 15.4031 5.31052 12.5691 8.02087 11.1815L7.26343 1.45292Z" fill="white"/>
<path d="M8.12346 1.411C8.12346 1.411 8.68739 1.19118 9.76614 1.7186C10.8444 2.24604 10.8682 2.72813 10.8682 2.72813L11.2853 9.37976C11.2853 9.37976 11.0171 9.77967 10.6538 10.1833C10.2904 10.5878 9.07634 11.2269 8.86647 10.85C8.65707 10.4737 8.12346 1.411 8.12346 1.411Z" fill="white"/>
<path d="M17.5005 25.5763L19.5736 24.3523C19.5736 24.3523 20.0466 24.2332 20.8339 24.6779C21.6217 25.1245 25.7884 28.1138 25.7884 28.1138C25.7884 28.1138 26.4852 28.6601 26.3266 29.3445C26.1679 30.0288 25.7603 31.4992 25.7603 31.4992L17.5005 25.5763Z" fill="white"/>
</svg>
