<svg width="17" height="14" viewBox="0 0 17 14" fill="none" xmlns="http://www.w3.org/2000/svg">
<mask id="mask0_1_2074" style="mask-type:luminance" maskUnits="userSpaceOnUse" x="0" y="0" width="17" height="5">
<path d="M0 0H17V4.54391H0V0Z" fill="white"/>
</mask>
<g mask="url(#mask0_1_2074)">
<path d="M16.4329 1.70135H6.15262C6.13745 1.6411 6.11962 1.58166 6.09933 1.52283C6.07904 1.46401 6.0565 1.40601 6.03149 1.34903C6.00649 1.29205 5.97902 1.2363 5.94951 1.18158C5.91979 1.12686 5.88802 1.07357 5.854 1.02151C5.81997 0.969449 5.7837 0.918825 5.74557 0.86984C5.70745 0.820855 5.66728 0.773305 5.62506 0.727599C5.58304 0.681894 5.53898 0.638033 5.49327 0.595812C5.44757 0.553795 5.40002 0.513624 5.35103 0.475297C5.30205 0.437175 5.25142 0.401102 5.19936 0.367079C5.1473 0.333056 5.09402 0.301288 5.03929 0.271774C4.98457 0.242055 4.92882 0.214796 4.87184 0.189791C4.81507 0.164991 4.75706 0.142241 4.69845 0.122155C4.63962 0.101864 4.57998 0.0842376 4.51993 0.0690707C4.45967 0.0536989 4.3988 0.0409915 4.33752 0.0307436C4.27623 0.0204957 4.21454 0.0129123 4.15265 0.00778839C4.09075 0.00266446 4.02865 0 3.96654 0C3.90444 0 3.84234 0.00266446 3.78044 0.00778839C3.71854 0.0129123 3.65685 0.0204957 3.59557 0.0307436C3.53429 0.0409915 3.47342 0.0536989 3.41316 0.0690707C3.35311 0.0842376 3.29346 0.101864 3.23464 0.122155C3.17602 0.142241 3.11802 0.164991 3.06125 0.189791C3.00427 0.214796 2.94852 0.242055 2.8938 0.271774C2.83907 0.301288 2.78578 0.333056 2.73372 0.367079C2.68166 0.401102 2.63104 0.437175 2.58206 0.475297C2.53307 0.513624 2.48552 0.553795 2.43981 0.595812C2.39411 0.638033 2.35004 0.681894 2.30803 0.727599C2.26581 0.773305 2.22563 0.820855 2.18751 0.86984C2.14939 0.918825 2.11311 0.969449 2.07909 1.02151C2.04507 1.07357 2.0133 1.12686 1.98358 1.18158C1.95407 1.2363 1.9266 1.29205 1.9016 1.34903C1.87659 1.40601 1.85405 1.46401 1.83376 1.52283C1.81346 1.58166 1.79563 1.6411 1.78047 1.70135H0.566503C0.529405 1.70135 0.492513 1.70504 0.456031 1.71242C0.419548 1.71959 0.38409 1.73046 0.349658 1.7446C0.31543 1.75895 0.282636 1.77637 0.251688 1.79707C0.220944 1.81777 0.19225 1.84134 0.166016 1.86757C0.139576 1.89401 0.116211 1.9225 0.0955102 1.95366C0.0748095 1.9846 0.0573881 2.01719 0.0430411 2.05163C0.028899 2.08606 0.0180362 2.12152 0.0108628 2.158C0.00348423 2.19469 0 2.23158 0 2.26868C0 2.30598 0.00348423 2.34287 0.0108628 2.37935C0.0180362 2.41604 0.028899 2.4515 0.0430411 2.48593C0.0573881 2.52036 0.0748095 2.55295 0.0955102 2.5839C0.116211 2.61485 0.139576 2.64354 0.166016 2.66998C0.19225 2.69622 0.220944 2.71979 0.251688 2.74049C0.282636 2.76119 0.31543 2.77861 0.349658 2.79296C0.38409 2.8071 0.419548 2.81796 0.456031 2.82514C0.492513 2.83251 0.529405 2.836 0.566503 2.836H1.78047C1.79563 2.89646 1.81346 2.9559 1.83376 3.01472C1.85405 3.07354 1.87659 3.13155 1.9016 3.18852C1.9266 3.2453 1.95407 3.30125 1.98358 3.35598C2.0133 3.41049 2.04507 3.46399 2.07909 3.51605C2.11311 3.56811 2.14939 3.61853 2.18751 3.66772C2.22563 3.7167 2.26581 3.76425 2.30803 3.80996C2.35004 3.85566 2.39411 3.89952 2.43981 3.94174C2.48552 3.98376 2.53307 4.02393 2.58206 4.06205C2.63104 4.10038 2.68166 4.13645 2.73372 4.17048C2.78578 4.2045 2.83907 4.23627 2.8938 4.26578C2.94852 4.2953 3.00427 4.32276 3.06125 4.34756C3.11802 4.37256 3.17602 4.39511 3.23464 4.4154C3.29346 4.43549 3.35311 4.45332 3.41316 4.46848C3.47342 4.48386 3.53429 4.49656 3.59557 4.50681C3.65685 4.51706 3.71854 4.52464 3.78044 4.52977C3.84234 4.53489 3.90444 4.53756 3.96654 4.53756C4.02865 4.53756 4.09075 4.53489 4.15265 4.52977C4.21454 4.52464 4.27623 4.51706 4.33752 4.50681C4.3988 4.49656 4.45967 4.48386 4.51993 4.46848C4.57998 4.45332 4.63962 4.43549 4.69845 4.4154C4.75706 4.39511 4.81507 4.37256 4.87184 4.34756C4.92882 4.32276 4.98457 4.2953 5.03929 4.26578C5.09402 4.23627 5.1473 4.2045 5.19936 4.17048C5.25142 4.13645 5.30205 4.10038 5.35103 4.06205C5.40002 4.02393 5.44757 3.98376 5.49327 3.94174C5.53898 3.89952 5.58304 3.85566 5.62506 3.80996C5.66728 3.76425 5.70745 3.7167 5.74557 3.66772C5.7837 3.61853 5.81997 3.56811 5.854 3.51605C5.88802 3.46399 5.91979 3.41049 5.94951 3.35598C5.97902 3.30125 6.00649 3.2453 6.03149 3.18852C6.0565 3.13155 6.07904 3.07354 6.09933 3.01472C6.11962 2.9559 6.13745 2.89646 6.15262 2.836H16.4329C16.4702 2.836 16.5071 2.83251 16.5436 2.82514C16.58 2.81796 16.6155 2.8071 16.6499 2.79296C16.6842 2.77861 16.717 2.76119 16.7477 2.74049C16.7786 2.71979 16.8073 2.69622 16.8336 2.66998C16.86 2.64354 16.8834 2.61485 16.9041 2.5839C16.9248 2.55295 16.9422 2.52036 16.9565 2.48593C16.9707 2.4515 16.9816 2.41604 16.9887 2.37935C16.9961 2.34287 16.9996 2.30598 16.9996 2.26868C16.9996 2.23158 16.9961 2.19469 16.9887 2.158C16.9816 2.12152 16.9707 2.08606 16.9565 2.05163C16.9422 2.01719 16.9248 1.9846 16.9041 1.95366C16.8834 1.9225 16.86 1.89401 16.8336 1.86757C16.8073 1.84134 16.7786 1.81777 16.7477 1.79707C16.717 1.77637 16.6842 1.75895 16.6499 1.7446C16.6155 1.73046 16.58 1.71959 16.5436 1.71242C16.5071 1.70504 16.4702 1.70135 16.4329 1.70135ZM3.96654 3.40332C3.92945 3.40332 3.89235 3.40168 3.85546 3.39799C3.81856 3.3943 3.78188 3.38877 3.74539 3.38159C3.70912 3.37442 3.67304 3.3654 3.63759 3.35454C3.60213 3.34368 3.56708 3.33118 3.53285 3.31703C3.49863 3.30289 3.46501 3.2869 3.43222 3.26948C3.39963 3.25186 3.36786 3.2328 3.33691 3.2121C3.30597 3.1916 3.27625 3.16946 3.24755 3.14589C3.21886 3.12232 3.19139 3.09732 3.16516 3.07108C3.13893 3.04485 3.11413 3.01739 3.09055 2.98849C3.06698 2.95979 3.04485 2.93007 3.02415 2.89912C3.00365 2.86818 2.98459 2.83641 2.96697 2.80361C2.94954 2.77082 2.93376 2.73721 2.91942 2.70298C2.90527 2.66855 2.89277 2.6337 2.88211 2.59804C2.87125 2.56258 2.86223 2.52651 2.85506 2.49003C2.84768 2.45375 2.84235 2.41686 2.83866 2.37997C2.83497 2.34308 2.83313 2.30598 2.83313 2.26868C2.83313 2.23158 2.83497 2.19448 2.83866 2.15759C2.84235 2.12049 2.84768 2.0838 2.85506 2.04732C2.86223 2.01104 2.87125 1.97497 2.88211 1.93931C2.89277 1.90385 2.90527 1.8688 2.91942 1.83458C2.93376 1.80014 2.94954 1.76673 2.96697 1.73394C2.98459 1.70115 3.00365 1.66938 3.02415 1.63843C3.04485 1.60748 3.06698 1.57776 3.09055 1.54886C3.11413 1.52017 3.13893 1.49271 3.16516 1.46647C3.19139 1.44024 3.21886 1.41523 3.24755 1.39166C3.27625 1.36809 3.30597 1.34596 3.33691 1.32526C3.36786 1.30476 3.39963 1.2857 3.43222 1.26807C3.46501 1.25065 3.49863 1.23466 3.53285 1.22052C3.56708 1.20618 3.60213 1.19367 3.63759 1.18302C3.67304 1.17215 3.70912 1.16313 3.74539 1.15596C3.78188 1.14858 3.81856 1.14325 3.85546 1.13956C3.89235 1.13587 3.92945 1.13403 3.96654 1.13403C4.00364 1.13403 4.04074 1.13587 4.07763 1.13956C4.11452 1.14325 4.15121 1.14858 4.18769 1.15596C4.22397 1.16313 4.26004 1.17215 4.2955 1.18302C4.33096 1.19367 4.36601 1.20618 4.40023 1.22052C4.43446 1.23466 4.46807 1.25065 4.50087 1.26807C4.53346 1.2857 4.56522 1.30476 4.59617 1.32526C4.62712 1.34596 4.65684 1.36809 4.68553 1.39166C4.71423 1.41523 4.74169 1.44024 4.76793 1.46647C4.79416 1.49271 4.81896 1.52017 4.84253 1.54886C4.8661 1.57776 4.88824 1.60748 4.90894 1.63843C4.92943 1.66938 4.9485 1.70115 4.96612 1.73394C4.98354 1.76673 4.99932 1.80014 5.01367 1.83458C5.02781 1.8688 5.04032 1.90385 5.05097 1.93931C5.06184 1.97497 5.07086 2.01104 5.07803 2.04732C5.08541 2.0838 5.09074 2.12049 5.09443 2.15759C5.09811 2.19448 5.09975 2.23158 5.09975 2.26868C5.09975 2.30598 5.09811 2.34308 5.09443 2.37997C5.09074 2.41686 5.08541 2.45375 5.07803 2.49003C5.07086 2.52651 5.06184 2.56258 5.05097 2.59804C5.04032 2.6337 5.02781 2.66855 5.01367 2.70298C4.99932 2.73721 4.98354 2.77082 4.96612 2.80361C4.9485 2.83641 4.92943 2.86818 4.90894 2.89912C4.88824 2.93007 4.8661 2.95979 4.84253 2.98849C4.81896 3.01739 4.79416 3.04485 4.76793 3.07108C4.74169 3.09732 4.71423 3.12232 4.68553 3.14589C4.65684 3.16946 4.62712 3.1916 4.59617 3.2121C4.56522 3.2328 4.53346 3.25186 4.50087 3.26948C4.46807 3.2869 4.43446 3.30289 4.40023 3.31703C4.36601 3.33118 4.33096 3.34368 4.2955 3.35454C4.26004 3.3654 4.22397 3.37442 4.18769 3.38159C4.15121 3.38877 4.11452 3.3943 4.07763 3.39799C4.04074 3.40168 4.00364 3.40332 3.96654 3.40332Z" fill="black"/>
</g>
<mask id="mask1_1_2074" style="mask-type:luminance" maskUnits="userSpaceOnUse" x="0" y="9" width="17" height="5">
<path d="M0 9.05396H17V13.6134H0V9.05396Z" fill="white"/>
</mask>
<g mask="url(#mask1_1_2074)">
<path d="M16.4329 10.7807H8.98595C8.97058 10.7204 8.95296 10.661 8.93266 10.6022C8.91237 10.5434 8.88983 10.4854 8.86462 10.4284C8.83961 10.3714 8.81236 10.3156 8.78284 10.2609C8.75312 10.2062 8.72135 10.1529 8.68733 10.1009C8.6531 10.0488 8.61703 9.99817 8.57891 9.94919C8.54058 9.9002 8.50041 9.85265 8.45839 9.80695C8.41617 9.76124 8.37231 9.71738 8.32661 9.67516C8.28069 9.63314 8.23335 9.59297 8.18437 9.55464C8.13518 9.51652 8.08476 9.48045 8.0327 9.44642C7.98064 9.4124 7.92735 9.38063 7.87262 9.35112C7.8179 9.3214 7.76215 9.29414 7.70517 9.26914C7.6482 9.24434 7.5904 9.22159 7.53158 9.2015C7.47296 9.18121 7.41331 9.16358 7.35306 9.14842C7.2928 9.13304 7.23213 9.12034 7.17085 9.11009C7.10957 9.09984 7.04788 9.09226 6.98598 9.08713C6.92408 9.08201 6.86198 9.07935 6.79988 9.07935C6.73777 9.07935 6.67567 9.08201 6.61378 9.08713C6.55167 9.09226 6.49019 9.09984 6.4289 9.11009C6.36762 9.12034 6.30675 9.13304 6.24649 9.14842C6.18623 9.16358 6.1268 9.18121 6.06797 9.2015C6.00915 9.22159 5.95135 9.24434 5.89437 9.26914C5.8376 9.29414 5.78165 9.3214 5.72713 9.35112C5.67241 9.38063 5.61912 9.4124 5.56706 9.44642C5.515 9.48045 5.46437 9.51652 5.41539 9.55464C5.3662 9.59297 5.31885 9.63314 5.27315 9.67516C5.22744 9.71738 5.18338 9.76124 5.14136 9.80695C5.09914 9.85265 5.05897 9.9002 5.02085 9.94919C4.98252 9.99817 4.94645 10.0488 4.91242 10.1009C4.8784 10.1529 4.84663 10.2062 4.81691 10.2609C4.78719 10.3156 4.75993 10.3714 4.73493 10.4284C4.70992 10.4854 4.68717 10.5434 4.66709 10.6022C4.6468 10.661 4.62897 10.7204 4.61359 10.7807H0.566503C0.529405 10.7807 0.492513 10.7844 0.456031 10.7918C0.419548 10.7989 0.38409 10.8098 0.349658 10.8239C0.31543 10.8383 0.282636 10.8557 0.251688 10.8764C0.220944 10.8971 0.19225 10.9207 0.166016 10.9469C0.139576 10.9734 0.116211 11.0018 0.0955102 11.033C0.0748095 11.0639 0.0573881 11.0965 0.0430411 11.131C0.028899 11.1654 0.0180362 11.2009 0.0108628 11.2373C0.00348423 11.274 0 11.3109 0 11.348C0 11.3853 0.00348423 11.4222 0.0108628 11.4587C0.0180362 11.4954 0.028899 11.5308 0.0430411 11.5653C0.0573881 11.5997 0.0748095 11.6323 0.0955102 11.6632C0.116211 11.6942 0.139576 11.7229 0.166016 11.7493C0.19225 11.7756 0.220944 11.7991 0.251688 11.8198C0.282636 11.8405 0.31543 11.858 0.349658 11.8723C0.38409 11.8864 0.419548 11.8973 0.456031 11.9045C0.492513 11.9119 0.529405 11.9153 0.566503 11.9153H4.61359C4.62897 11.9758 4.6468 12.0352 4.66709 12.0941C4.68717 12.1529 4.70992 12.2109 4.73493 12.2677C4.75993 12.3246 4.78719 12.3806 4.81691 12.4353C4.84663 12.4898 4.8784 12.5433 4.91242 12.5954C4.94645 12.6475 4.98252 12.6979 5.02085 12.7471C5.05897 12.796 5.09914 12.8436 5.14136 12.8893C5.18338 12.935 5.22744 12.9789 5.27315 13.0211C5.31885 13.0631 5.3662 13.1033 5.41539 13.1414C5.46437 13.1797 5.515 13.2158 5.56706 13.2498C5.61912 13.2838 5.67241 13.3156 5.72713 13.3451C5.78165 13.3746 5.8376 13.4021 5.89437 13.4269C5.95135 13.4519 6.00915 13.4745 6.06797 13.4947C6.1268 13.5148 6.18623 13.5327 6.24649 13.5478C6.30675 13.5632 6.36762 13.5759 6.4289 13.5862C6.49019 13.5964 6.55167 13.604 6.61378 13.6091C6.67567 13.6142 6.73777 13.6169 6.79988 13.6169C6.86198 13.6169 6.92408 13.6142 6.98598 13.6091C7.04788 13.604 7.10957 13.5964 7.17085 13.5862C7.23213 13.5759 7.2928 13.5632 7.35306 13.5478C7.41331 13.5327 7.47296 13.5148 7.53158 13.4947C7.5904 13.4745 7.6482 13.4519 7.70517 13.4269C7.76215 13.4021 7.8179 13.3746 7.87262 13.3451C7.92735 13.3156 7.98064 13.2838 8.0327 13.2498C8.08476 13.2158 8.13518 13.1797 8.18437 13.1414C8.23335 13.1033 8.28069 13.0631 8.32661 13.0211C8.37231 12.9789 8.41617 12.935 8.45839 12.8893C8.50041 12.8436 8.54058 12.796 8.57891 12.7471C8.61703 12.6979 8.6531 12.6475 8.68733 12.5954C8.72135 12.5433 8.75312 12.4898 8.78284 12.4353C8.81236 12.3806 8.83961 12.3246 8.86462 12.2677C8.88983 12.2109 8.91237 12.1529 8.93266 12.0941C8.95296 12.0352 8.97058 11.9758 8.98595 11.9153H16.4329C16.4702 11.9153 16.5071 11.9119 16.5436 11.9045C16.58 11.8973 16.6155 11.8864 16.6499 11.8723C16.6842 11.858 16.717 11.8405 16.7477 11.8198C16.7786 11.7991 16.8073 11.7756 16.8336 11.7493C16.86 11.7229 16.8834 11.6942 16.9041 11.6632C16.9248 11.6323 16.9422 11.5997 16.9565 11.5653C16.9707 11.5308 16.9816 11.4954 16.9887 11.4587C16.9961 11.4222 16.9996 11.3853 16.9996 11.348C16.9996 11.3109 16.9961 11.274 16.9887 11.2373C16.9816 11.2009 16.9707 11.1654 16.9565 11.131C16.9422 11.0965 16.9248 11.0639 16.9041 11.033C16.8834 11.0018 16.86 10.9734 16.8336 10.9469C16.8073 10.9207 16.7786 10.8971 16.7477 10.8764C16.717 10.8557 16.6842 10.8383 16.6499 10.8239C16.6155 10.8098 16.58 10.7989 16.5436 10.7918C16.5071 10.7844 16.4702 10.7807 16.4329 10.7807ZM6.79988 12.4827C6.76278 12.4827 6.72568 12.481 6.68879 12.4773C6.6519 12.4736 6.61521 12.4681 6.57873 12.4609C6.54225 12.4538 6.50638 12.4447 6.47092 12.4339C6.43526 12.423 6.40041 12.4105 6.36619 12.3964C6.33175 12.3822 6.29835 12.3663 6.26555 12.3488C6.23276 12.3312 6.20099 12.3121 6.17025 12.2914C6.1393 12.2709 6.10958 12.2488 6.08089 12.2252C6.05219 12.2017 6.02473 12.1767 5.99849 12.1504C5.97226 12.1242 5.94725 12.0967 5.92368 12.0678C5.90011 12.0391 5.87818 12.0094 5.85748 11.9785C5.83699 11.9475 5.81792 11.9158 5.8003 11.883C5.78288 11.8502 5.76689 11.8166 5.75275 11.7823C5.73861 11.7479 5.7261 11.7131 5.71524 11.6774C5.70458 11.6419 5.69557 11.6059 5.68819 11.5694C5.68101 11.5331 5.67568 11.4962 5.672 11.4593C5.66831 11.4224 5.66646 11.3853 5.66646 11.348C5.66646 11.3109 5.66831 11.2738 5.672 11.2369C5.67568 11.1998 5.68101 11.1631 5.68819 11.1267C5.69557 11.0904 5.70458 11.0543 5.71524 11.0187C5.7261 10.9832 5.73861 10.9481 5.75275 10.9139C5.76689 10.8795 5.78288 10.8461 5.8003 10.8133C5.81792 10.7805 5.83699 10.7487 5.85748 10.7178C5.87818 10.6868 5.90011 10.6571 5.92368 10.6282C5.94725 10.5995 5.97226 10.5721 5.99849 10.5458C6.02473 10.5196 6.05219 10.4946 6.08089 10.471C6.10958 10.4474 6.1393 10.4253 6.17025 10.4046C6.20099 10.3841 6.23276 10.365 6.26555 10.3474C6.29835 10.33 6.33175 10.314 6.36619 10.2999C6.40041 10.2855 6.43526 10.273 6.47092 10.2624C6.50638 10.2515 6.54225 10.2425 6.57873 10.2353C6.61521 10.2279 6.6519 10.2226 6.68879 10.2189C6.72568 10.2152 6.76278 10.2134 6.79988 10.2134C6.83697 10.2134 6.87407 10.2152 6.91096 10.2189C6.94786 10.2226 6.98454 10.2279 7.02082 10.2353C7.0573 10.2425 7.09338 10.2515 7.12883 10.2624C7.16429 10.273 7.19913 10.2855 7.23357 10.2999C7.2678 10.314 7.30141 10.33 7.334 10.3474C7.36679 10.365 7.39856 10.3841 7.42951 10.4046C7.46025 10.4253 7.49017 10.4474 7.51887 10.471C7.54756 10.4946 7.57503 10.5196 7.60126 10.5458C7.6275 10.5721 7.6523 10.5995 7.67587 10.6282C7.69944 10.6571 7.72157 10.6868 7.74207 10.7178C7.76277 10.7487 7.78183 10.7805 7.79925 10.8133C7.81688 10.8461 7.83266 10.8795 7.8468 10.9139C7.86115 10.9481 7.87365 10.9832 7.88431 11.0187C7.89517 11.0543 7.90419 11.0904 7.91136 11.1267C7.91854 11.1631 7.92407 11.1998 7.92776 11.2369C7.93124 11.2738 7.93309 11.3109 7.93309 11.348C7.93309 11.3853 7.93124 11.4224 7.92776 11.4593C7.92407 11.4962 7.91854 11.5331 7.91136 11.5694C7.90419 11.6059 7.89517 11.6419 7.88431 11.6774C7.87365 11.7131 7.86115 11.7479 7.8468 11.7823C7.83266 11.8166 7.81688 11.8502 7.79925 11.883C7.78183 11.9158 7.76277 11.9475 7.74207 11.9785C7.72157 12.0094 7.69944 12.0391 7.67587 12.0678C7.6523 12.0967 7.6275 12.1242 7.60126 12.1504C7.57503 12.1767 7.54756 12.2017 7.51887 12.2252C7.49017 12.2488 7.46025 12.2709 7.42951 12.2914C7.39856 12.3121 7.36679 12.3312 7.334 12.3488C7.30141 12.3663 7.2678 12.3822 7.23357 12.3964C7.19913 12.4105 7.16429 12.423 7.12883 12.4339C7.09338 12.4447 7.0573 12.4538 7.02082 12.4609C6.98454 12.4681 6.94786 12.4736 6.91096 12.4773C6.87407 12.481 6.83697 12.4827 6.79988 12.4827Z" fill="black"/>
</g>
<path d="M16.4329 6.23968H15.7858C15.7705 6.17943 15.7528 6.11999 15.7325 6.06116C15.7123 6.00234 15.6897 5.94434 15.6645 5.88736C15.6395 5.83038 15.6122 5.77463 15.5825 5.71991C15.553 5.66519 15.5212 5.6119 15.4872 5.55984C15.453 5.50778 15.4169 5.45715 15.3788 5.40817C15.3405 5.35919 15.3003 5.31164 15.2583 5.26593C15.216 5.22022 15.1722 5.17636 15.1265 5.13414C15.0806 5.09213 15.0332 5.05195 14.9842 5.01363C14.9351 4.9755 14.8846 4.93943 14.8326 4.90541C14.7805 4.87139 14.7272 4.83962 14.6725 4.8101C14.6178 4.78038 14.562 4.75313 14.5051 4.72812C14.4481 4.70332 14.3903 4.68057 14.3315 4.66048C14.2728 4.64019 14.2132 4.62257 14.1529 4.6074C14.0927 4.59203 14.032 4.57932 13.9707 4.56907C13.9094 4.55883 13.8478 4.55124 13.7859 4.54612C13.724 4.54099 13.6619 4.53833 13.5998 4.53833C13.5377 4.53833 13.4755 4.54099 13.4137 4.54612C13.3516 4.55124 13.2901 4.55883 13.2288 4.56907C13.1675 4.57932 13.1066 4.59203 13.0464 4.6074C12.9861 4.62257 12.9267 4.64019 12.8679 4.66048C12.809 4.68057 12.7512 4.70332 12.6943 4.72812C12.6375 4.75313 12.5815 4.78038 12.527 4.8101C12.4723 4.83962 12.419 4.87139 12.3669 4.90541C12.3149 4.93943 12.2642 4.9755 12.2153 5.01363C12.1661 5.05195 12.1187 5.09213 12.073 5.13414C12.0273 5.17636 11.9833 5.22022 11.9412 5.26593C11.899 5.31164 11.8588 5.35919 11.8207 5.40817C11.7824 5.45715 11.7463 5.50778 11.7123 5.55984C11.6783 5.6119 11.6465 5.66519 11.6168 5.71991C11.5871 5.77463 11.5598 5.83038 11.5348 5.88736C11.5098 5.94434 11.4871 6.00234 11.467 6.06116C11.4467 6.11999 11.4288 6.17943 11.4135 6.23968H0.566503C0.529405 6.23968 0.492513 6.24337 0.456031 6.25075C0.419548 6.25792 0.38409 6.26879 0.349658 6.28293C0.31543 6.29728 0.282636 6.3147 0.251688 6.3354C0.220944 6.3561 0.19225 6.37967 0.166016 6.4059C0.139576 6.43234 0.116211 6.46083 0.0955102 6.49199C0.0748095 6.52293 0.0573881 6.55552 0.0430411 6.58996C0.028899 6.62439 0.0180362 6.65985 0.0108628 6.69633C0.00348423 6.73302 0 6.76991 0 6.80701C0 6.84431 0.00348423 6.8812 0.0108628 6.91768C0.0180362 6.95437 0.028899 6.98983 0.0430411 7.02426C0.0573881 7.05869 0.0748095 7.09128 0.0955102 7.12223C0.116211 7.15318 0.139576 7.18187 0.166016 7.20831C0.19225 7.23455 0.220944 7.25812 0.251688 7.27882C0.282636 7.29952 0.31543 7.31694 0.349658 7.33129C0.38409 7.34543 0.419548 7.35629 0.456031 7.36347C0.492513 7.37084 0.529405 7.37433 0.566503 7.37433H11.4135C11.4288 7.43479 11.4467 7.49423 11.467 7.55305C11.4871 7.61187 11.5098 7.66988 11.5348 7.72686C11.5598 7.78363 11.5871 7.83958 11.6168 7.89431C11.6465 7.94882 11.6783 8.00232 11.7123 8.05438C11.7463 8.10644 11.7824 8.15686 11.8207 8.20605C11.8588 8.25503 11.899 8.30258 11.9412 8.34829C11.9833 8.39399 12.0273 8.43785 12.073 8.48007C12.1187 8.52209 12.1661 8.56226 12.2153 8.60038C12.2642 8.63871 12.3149 8.67478 12.3669 8.70881C12.419 8.74283 12.4723 8.7746 12.527 8.80411C12.5815 8.83363 12.6375 8.86089 12.6943 8.88589C12.7512 8.91089 12.809 8.93344 12.8679 8.95373C12.9267 8.97382 12.9861 8.99165 13.0464 9.00681C13.1066 9.02219 13.1675 9.03489 13.2288 9.04514C13.2901 9.05539 13.3516 9.06297 13.4137 9.0681C13.4755 9.07322 13.5377 9.07589 13.5998 9.07589C13.6619 9.07589 13.724 9.07322 13.7859 9.0681C13.8478 9.06297 13.9094 9.05539 13.9707 9.04514C14.032 9.03489 14.0927 9.02219 14.1529 9.00681C14.2132 8.99165 14.2728 8.97382 14.3315 8.95373C14.3903 8.93344 14.4481 8.91089 14.5051 8.88589C14.562 8.86089 14.6178 8.83363 14.6725 8.80411C14.7272 8.7746 14.7805 8.74283 14.8326 8.70881C14.8846 8.67478 14.9351 8.63871 14.9842 8.60038C15.0332 8.56226 15.0806 8.52209 15.1265 8.48007C15.1722 8.43785 15.216 8.39399 15.2583 8.34829C15.3003 8.30258 15.3405 8.25503 15.3788 8.20605C15.4169 8.15686 15.453 8.10644 15.4872 8.05438C15.5212 8.00232 15.553 7.94882 15.5825 7.89431C15.6122 7.83958 15.6395 7.78363 15.6645 7.72686C15.6897 7.66988 15.7123 7.61187 15.7325 7.55305C15.7528 7.49423 15.7705 7.43479 15.7858 7.37433H16.4329C16.4702 7.37433 16.5071 7.37084 16.5436 7.36347C16.58 7.35629 16.6155 7.34543 16.6499 7.33129C16.6842 7.31694 16.717 7.29952 16.7477 7.27882C16.7786 7.25812 16.8073 7.23455 16.8336 7.20831C16.86 7.18187 16.8834 7.15318 16.9041 7.12223C16.9248 7.09128 16.9422 7.05869 16.9565 7.02426C16.9707 6.98983 16.9816 6.95437 16.9887 6.91768C16.9961 6.8812 16.9996 6.84431 16.9996 6.80701C16.9996 6.76991 16.9961 6.73302 16.9887 6.69633C16.9816 6.65985 16.9707 6.62439 16.9565 6.58996C16.9422 6.55552 16.9248 6.52293 16.9041 6.49199C16.8834 6.46083 16.86 6.43234 16.8336 6.4059C16.8073 6.37967 16.7786 6.3561 16.7477 6.3354C16.717 6.3147 16.6842 6.29728 16.6499 6.28293C16.6155 6.26879 16.58 6.25792 16.5436 6.25075C16.5071 6.24337 16.4702 6.23968 16.4329 6.23968ZM13.5998 7.94165C13.5627 7.94165 13.5256 7.94001 13.4887 7.93632C13.4518 7.93263 13.4151 7.9271 13.3786 7.91992C13.3421 7.91275 13.3063 7.90373 13.2708 7.89287C13.2351 7.88201 13.2003 7.86951 13.1661 7.85536C13.1316 7.84122 13.0982 7.82523 13.0654 7.80781C13.0326 7.79019 13.0009 7.77113 12.9701 7.75043C12.9392 7.72993 12.9095 7.70779 12.8808 7.68422C12.8521 7.66065 12.8246 7.63565 12.7984 7.60941C12.7721 7.58318 12.7471 7.55572 12.7236 7.52682C12.7 7.49812 12.6781 7.4684 12.6574 7.43745C12.6369 7.40651 12.6178 7.37474 12.6002 7.34194C12.5828 7.30915 12.5668 7.27554 12.5526 7.24131C12.5385 7.20688 12.526 7.17203 12.5151 7.13637C12.5045 7.10091 12.4954 7.06484 12.4881 7.02836C12.4809 6.99208 12.4756 6.95519 12.4719 6.9183C12.4682 6.88141 12.4663 6.84431 12.4663 6.80701C12.4663 6.76991 12.4682 6.73281 12.4719 6.69592C12.4756 6.65882 12.4809 6.62213 12.4881 6.58565C12.4954 6.54937 12.5045 6.5133 12.5151 6.47764C12.526 6.44218 12.5385 6.40713 12.5526 6.37291C12.5668 6.33847 12.5828 6.30506 12.6002 6.27227C12.6178 6.23948 12.6369 6.20771 12.6574 6.17676C12.6781 6.14581 12.7 6.11609 12.7236 6.08719C12.7471 6.0585 12.7721 6.03104 12.7984 6.0048C12.8246 5.97857 12.8521 5.95356 12.8808 5.92999C12.9095 5.90642 12.9392 5.88429 12.9701 5.86359C13.0009 5.84309 13.0326 5.82403 13.0654 5.8064C13.0982 5.78898 13.1316 5.77299 13.1661 5.75885C13.2003 5.74451 13.2351 5.732 13.2708 5.72135C13.3063 5.71048 13.3421 5.70146 13.3786 5.69429C13.4151 5.68691 13.4518 5.68158 13.4887 5.67789C13.5256 5.6742 13.5627 5.67236 13.5998 5.67236C13.6369 5.67236 13.6739 5.6742 13.7108 5.67789C13.7477 5.68158 13.7844 5.68691 13.8207 5.69429C13.8572 5.70146 13.8933 5.71048 13.9287 5.72135C13.9642 5.732 13.999 5.74451 14.0334 5.75885C14.0677 5.77299 14.1013 5.78898 14.1339 5.8064C14.1667 5.82403 14.1984 5.84309 14.2294 5.86359C14.2601 5.88429 14.2901 5.90642 14.3187 5.92999C14.3474 5.95356 14.3749 5.97857 14.4011 6.0048C14.4274 6.03104 14.4522 6.0585 14.4757 6.08719C14.4993 6.11609 14.5214 6.14581 14.5419 6.17676C14.5626 6.20771 14.5817 6.23948 14.5991 6.27227C14.6168 6.30506 14.6325 6.33847 14.6467 6.37291C14.661 6.40713 14.6735 6.44218 14.6842 6.47764C14.695 6.5133 14.7041 6.54937 14.7112 6.58565C14.7184 6.62213 14.7239 6.65882 14.7276 6.69592C14.7311 6.73281 14.733 6.76991 14.733 6.80701C14.733 6.84431 14.7311 6.88141 14.7276 6.9183C14.7239 6.95519 14.7184 6.99208 14.7112 7.02836C14.7041 7.06484 14.695 7.10091 14.6842 7.13637C14.6735 7.17203 14.661 7.20688 14.6467 7.24131C14.6325 7.27554 14.6168 7.30915 14.5991 7.34194C14.5817 7.37474 14.5626 7.40651 14.5419 7.43745C14.5214 7.4684 14.4993 7.49812 14.4757 7.52682C14.4522 7.55572 14.4274 7.58318 14.4011 7.60941C14.3749 7.63565 14.3474 7.66065 14.3187 7.68422C14.2901 7.70779 14.2601 7.72993 14.2294 7.75043C14.1984 7.77113 14.1667 7.79019 14.1339 7.80781C14.1013 7.82523 14.0677 7.84122 14.0334 7.85536C13.999 7.86951 13.9642 7.88201 13.9287 7.89287C13.8933 7.90373 13.8572 7.91275 13.8207 7.91992C13.7844 7.9271 13.7477 7.93263 13.7108 7.93632C13.6739 7.94001 13.6369 7.94165 13.5998 7.94165Z" fill="black"/>
</svg>
