<?xml version="1.0" encoding="UTF-8" standalone="no"?>
<svg
   width="35.261799"
   height="31.962843"
   viewBox="0 0 35.261799 31.962843"
   fill="none"
   version="1.1"
   id="svg19"
   sodipodi:docname="289d3057df504411865a8a5fd28d01f5.svg"
   xmlns:inkscape="http://www.inkscape.org/namespaces/inkscape"
   xmlns:sodipodi="http://sodipodi.sourceforge.net/DTD/sodipodi-0.dtd"
   xmlns="http://www.w3.org/2000/svg"
   xmlns:svg="http://www.w3.org/2000/svg">
  <defs
     id="defs23" />
  <sodipodi:namedview
     id="namedview21"
     pagecolor="#ffffff"
     bordercolor="#666666"
     borderopacity="1.0"
     inkscape:pageshadow="2"
     inkscape:pageopacity="0.0"
     inkscape:pagecheckerboard="0" />
  <path
     d="m 18.515,28.632243 c 0,0.0579 -0.006,0.1157 -0.017,0.1727 -0.0115,0.0569 -0.0285,0.112 -0.0505,0.1657 -0.0221,0.0537 -0.0496,0.1047 -0.0818,0.1529 -0.0321,0.0487 -0.0688,0.0932 -0.1097,0.1345 -0.0409,0.0409 -0.0859,0.0776 -0.1341,0.1098 -0.0482,0.0321 -0.0991,0.0597 -0.1524,0.0817 -0.0537,0.0225 -0.1093,0.039 -0.1662,0.0505 -0.0565,0.0115 -0.1143,0.017 -0.1722,0.017 -0.0578,0 -0.1157,-0.0055 -0.1722,-0.017 -0.0569,-0.0115 -0.1124,-0.028 -0.1662,-0.0505 -0.0532,-0.022 -0.1042,-0.0496 -0.1524,-0.0817 -0.0482,-0.0322 -0.0932,-0.0689 -0.1341,-0.1098 -0.0408,-0.0413 -0.0776,-0.0858 -0.1097,-0.1345 -0.0321,-0.0482 -0.0597,-0.0992 -0.0817,-0.1529 -0.0221,-0.0537 -0.039,-0.1088 -0.0505,-0.1657 -0.011,-0.057 -0.017,-0.1148 -0.017,-0.1727 0,-0.0583 0.006,-0.1157 0.017,-0.1726 0.0115,-0.0569 0.0284,-0.1125 0.0505,-0.1662 0.022,-0.0537 0.0496,-0.1047 0.0817,-0.1529 0.0321,-0.0482 0.0689,-0.0932 0.1097,-0.1341 0.0409,-0.0413 0.0859,-0.0776 0.1341,-0.1102 0.0482,-0.0321 0.0992,-0.0592 0.1524,-0.0817 0.0538,-0.022 0.1093,-0.039 0.1662,-0.0505 0.0565,-0.011 0.1144,-0.017 0.1722,-0.017 0.0579,0 0.1157,0.006 0.1722,0.017 0.0569,0.0115 0.1125,0.0285 0.1662,0.0505 0.0533,0.0225 0.1042,0.0496 0.1524,0.0817 0.0482,0.0326 0.0932,0.0689 0.1341,0.1102 0.0409,0.0409 0.0776,0.0859 0.1097,0.1341 0.0322,0.0482 0.0597,0.0992 0.0818,0.1529 0.022,0.0537 0.039,0.1093 0.0505,0.1662 0.011,0.0569 0.017,0.1143 0.017,0.1726 z"
     fill="#ff0105"
     id="path2" />
  <path
     d="M 3.17585,3.9096426 C 1.1281,5.9472926 0,8.6603326 0,11.548343 c 0,2.8833 1.12764,5.5964 3.17539,7.6382 0.15289,0.1524 0.35262,0.2286 0.5528,0.2286 0.2011,0 0.40221,-0.0771 0.5551,-0.2314 0.30532,-0.3067 0.30441,-0.8035 -0.0023,-1.1093 -1.75023,-1.7451 -2.71396,-4.0629 -2.71396,-6.5261 0,-2.4669804 0.96373,-4.7847004 2.7135,-6.5257504 0.30717,-0.30532 0.30854,-0.80211 0.00368,-1.10973 -0.30579,-0.30762 -0.8012,-0.30854 -1.10836,-0.00322 z"
     fill="#ff0105"
     id="path4" />
  <path
     d="m 7.18261,6.0607426 c -0.30486,-0.30762 -0.80165,-0.309 -1.10789,-0.00322 -1.46924,1.46281 -2.27824,3.41277 -2.27824,5.4908204 0,2.0758 0.809,4.0243 2.27824,5.4871 0.15289,0.152 0.35261,0.2282 0.5528,0.2282 0.2011,0 0.4022,-0.0776 0.55555,-0.2314 0.30533,-0.3076 0.30349,-0.8044 -0.00321,-1.1102 -1.1708,-1.1657 -1.81589,-2.719 -1.81589,-4.3737 0,-1.6574804 0.64509,-3.2121204 1.81589,-4.3778704 0.3067,-0.30578 0.30808,-0.80257 0.00275,-1.10973 z"
     fill="#ff0105"
     id="path6" />
  <path
     d="m 30.9776,3.9114026 c -0.3049,0.30762 -0.3035,0.8044 0.0032,1.10973 1.7503,1.74105 2.7135,4.05877 2.7135,6.5252104 0,2.4638 -0.9637,4.7815 -2.7135,6.5267 -0.3071,0.3058 -0.3076,0.8025 -0.0023,1.1092 0.1529,0.1543 0.3536,0.2314 0.5551,0.2314 0.1998,0 0.3999,-0.0762 0.5528,-0.2286 2.0478,-2.0418 3.1754,-4.7548 3.1754,-7.6382 0,-2.8879704 -1.1281,-5.6010104 -3.1758,-7.6386604 -0.3072,-0.30578 -0.8026,-0.30395 -1.1084,0.00322 z"
     fill="#ff0105"
     id="path8" />
  <path
     d="m 28.0792,17.029743 c 0.1528,0.1543 0.3539,0.2314 0.5555,0.2314 0.1997,0 0.3999,-0.0757 0.5524,-0.2277 1.4692,-1.4628 2.2782,-3.4114 2.2782,-5.4872 0,-2.0780104 -0.809,-4.0279604 -2.2782,-5.4907704 -0.3072,-0.30533 -0.8031,-0.30395 -1.1079,0.00321 -0.3054,0.30717 -0.304,0.80395 0.0032,1.10974 1.1708,1.16575 1.8154,2.72084 1.8154,4.3778204 0,1.6548 -0.6446,3.208 -1.8154,4.3742 -0.3072,0.3054 -0.3086,0.8022 -0.0032,1.1093 z"
     fill="#ff0105"
     id="path10" />
  <mask
     id="mask0_0_174"
     maskUnits="userSpaceOnUse"
     x="9"
     y="0"
     width="18"
     height="32">
    <path
       d="M 9.16922,0 H 26.0948 V 32 H 9.16922 Z"
       fill="#ffffff"
       id="path12" />
  </mask>
  <g
     mask="url(#mask0_0_174)"
     id="g17"
     transform="translate(0,-0.0163574)">
    <path
       d="M 23.1926,0.0163574 H 12.07 c -1.5643,0 -2.83703,1.2750226 -2.83703,2.8420526 V 29.1376 c 0,1.5665 1.27273,2.8416 2.83743,2.8416 H 23.193 c 1.5643,0 2.8375,-1.2751 2.8375,-2.8416 V 2.85841 C 26.03,1.29138 24.7573,0.0163574 23.1926,0.0163574 Z M 10.8,4.63711 H 24.463 V 25.5191 H 10.8 Z M 12.0704,1.58569 H 23.193 c 0.7002,0 1.27,0.57116 1.27,1.27272 V 3.06778 H 10.8 V 2.85841 c 0,-0.70156 0.5698,-1.27272 1.2704,-1.27272 z M 23.1926,30.4098 H 12.07 c -0.7002,0 -1.27,-0.5707 -1.27,-1.2722 v -2.0492 h 13.663 v 2.0492 c 0,0.7015 -0.5698,1.2722 -1.2704,1.2722 z"
       fill="#ff0105"
       id="path15" />
  </g>
</svg>
