<svg width="25" height="25" viewBox="0 0 25 25" fill="none" xmlns="http://www.w3.org/2000/svg">
<mask id="mask0_0_325" style="mask-type:luminance" maskUnits="userSpaceOnUse" x="3" y="0" width="22" height="18">
<path d="M3.91669 0H25V17.5H3.91669V0Z" fill="white"/>
</mask>
<g mask="url(#mask0_0_325)">
<path d="M4.86582 4.02816C4.75742 4.12549 4.61484 4.17594 4.46934 4.16781C4.32415 4.16032 4.18744 4.09554 4.0901 3.98714C3.9931 3.87907 3.94264 3.73617 3.95013 3.59098C3.95794 3.4458 4.02305 3.30908 4.13112 3.21175C5.2763 2.18115 6.60215 1.37158 8.04225 0.823405C9.47064 0.279135 10.9866 -0.000487709 12.5149 -0.000487709C13.5868 -0.000813293 14.6542 0.137859 15.69 0.411296C16.7613 0.694825 17.7903 1.11995 18.7493 1.67432C19.7275 2.23812 20.6246 2.9318 21.4166 3.73682C22.1816 4.51514 22.8414 5.39144 23.3775 6.34261C23.9065 7.28011 24.3128 8.28174 24.5862 9.32308C24.8603 10.3644 24.999 11.4367 24.999 12.5135C24.9993 14.0985 24.6959 15.6694 24.1064 17.1408C24.0523 17.2756 23.9465 17.3839 23.8128 17.4412C23.679 17.4982 23.5279 17.5002 23.3925 17.4458C23.2574 17.3918 23.149 17.286 23.0924 17.1525C23.0348 17.0187 23.0335 16.8673 23.0872 16.7323C23.6253 15.3908 23.9016 13.9588 23.901 12.5135C23.901 11.5311 23.7743 10.5526 23.5243 9.60205C23.275 8.65185 22.9042 7.73714 22.4215 6.882C21.9325 6.01449 21.3313 5.21631 20.6337 4.50602C19.9111 3.77197 19.0927 3.13949 18.2005 2.62484C17.3251 2.11898 16.3867 1.73161 15.4098 1.47282C14.4651 1.22315 13.4918 1.09684 12.5149 1.09749C11.1197 1.09749 9.73659 1.35238 8.4332 1.84945C7.11973 2.34945 5.91009 3.08805 4.86582 4.02816Z" fill="white"/>
</g>
<mask id="mask1_0_325" style="mask-type:luminance" maskUnits="userSpaceOnUse" x="0" y="5" width="23" height="21">
<path d="M0 5.08398H22.9167V25.0006H0V5.08398Z" fill="white"/>
</mask>
<g mask="url(#mask1_0_325)">
<path d="M21.8588 19.0117C21.9422 18.8922 22.0694 18.8108 22.2127 18.7851C22.3559 18.7597 22.5037 18.7919 22.6235 18.8753C22.7426 18.9586 22.824 19.0859 22.8494 19.2291C22.8754 19.3724 22.8429 19.5201 22.7595 19.6393C21.6257 21.2649 20.1235 22.5999 18.3754 23.5341C17.4897 24.0071 16.5496 24.3707 15.5759 24.6178C14.5704 24.872 13.5375 25 12.5001 24.9996C11.6544 25 10.811 24.9147 9.98252 24.7457C9.17816 24.581 8.39171 24.3365 7.63585 24.0166C6.15115 23.3873 4.80186 22.4772 3.66221 21.3369C2.52191 20.1972 1.61176 18.8479 0.982527 17.3632C0.662866 16.6074 0.418399 15.8209 0.253686 15.0166C0.0844152 14.1881 -0.000871321 13.345 -0.000545738 12.499C-0.00152232 11.2096 0.197371 9.92737 0.588972 8.69885C0.968204 7.512 1.52322 6.38896 2.23513 5.36682C2.31781 5.24768 2.44574 5.1663 2.58897 5.14026C2.7322 5.11487 2.87999 5.14742 2.99913 5.23075C3.11827 5.31343 3.2003 5.44136 3.22569 5.58459C3.25108 5.7275 3.21853 5.87528 3.13585 5.99475C2.48676 6.92639 1.98057 7.95015 1.63487 9.03218C1.27745 10.1533 1.09646 11.3225 1.09744 12.499C1.09678 13.2705 1.17491 14.0406 1.32888 14.7965C1.47927 15.5296 1.70225 16.246 1.99359 16.9352C2.56781 18.29 3.39789 19.5205 4.43858 20.5605C5.47862 21.6015 6.70974 22.4313 8.06391 23.0055C8.75303 23.2975 9.4695 23.5201 10.2026 23.6702C10.9588 23.8245 11.7286 23.9023 12.5001 23.9016C13.4467 23.9023 14.3894 23.7854 15.3064 23.5533C16.1938 23.3284 17.0506 22.9967 17.8578 22.5654C19.4532 21.7132 20.8243 20.4951 21.8588 19.0117Z" fill="white"/>
</g>
<path d="M11.9512 3.86719C11.9512 3.72168 12.0091 3.58171 12.1117 3.47917C12.2145 3.3763 12.3542 3.31836 12.5 3.31836C12.6459 3.31836 12.7855 3.3763 12.8884 3.47917C12.9909 3.58171 13.0488 3.72168 13.0488 3.86719V13.3148L7.2868 16.6673C7.16115 16.7399 7.01141 16.7604 6.87079 16.723C6.73016 16.6862 6.60972 16.5944 6.53648 16.4684C6.46356 16.3428 6.44305 16.193 6.48049 16.0524C6.5176 15.9118 6.60939 15.7913 6.73505 15.7181L11.9512 12.6833V3.86719Z" fill="white"/>
</svg>
